# xmcd
#
# Track frame offsets: 
#        150
#        16197
#        29127
#        51595
#        64028
#        84203
#        109061
#        124240
#        139686
#        167749
#        183071
#        203828
#
# Disc length: 2911 seconds
#
# Revision: 2
# Processed by: cddbd v1.5.2PL0 Copyright (c) Steve Scherf et al.
# Submitted via: ExactAudioCopyFreeDBPlugin 1.0
#
DISCID=a10b5d0c
DTITLE=Melody Gardot - My One and Only Thrill
DYEAR=2009
DGENRE=Jazz
TTITLE0=Baby I'm A Fool
TTITLE1=If The Stars Were Mine
TTITLE2=Who Will Comfort Me
TTITLE3=Your Heart Is As Black As Night
TTITLE4=Lover Undercover
TTITLE5=Our Love Is Easy
TTITLE6=Les Etoiles
TTITLE7=The Rain
TTITLE8=My One And Only Thrill
TTITLE9=Deep Within The Corners Of My Mind
TTITLE10=Over The Rainbow
TTITLE11=If The Stars Were Mine (Orchestral Version
EXTD=YEAR: 2009
EXTT0=
EXTT1=
EXTT2=
EXTT3=
EXTT4=
EXTT5=
EXTT6=
EXTT7=
EXTT8=
EXTT9=
EXTT10=
EXTT11=
PLAYORDER=
